<?xml version="1.0" encoding="UTF-8"?>
<!-- GENERATED by tools/build-icons.py - do not edit by hand.
     Source: @tabler/icons 3.48.0 (sha1 08ad2b8c328ef5115b10ea306a52b6d9271f7b32)
     58 icons. Add one by naming it in ICONS and re-running the script. -->
<svg xmlns="http://www.w3.org/2000/svg" style="display:none">
  <symbol id="ti-affiliate" viewBox="0 0 24 24" fill="none" stroke="currentColor" stroke-width="2" stroke-linecap="round" stroke-linejoin="round"><path d="M5.931 6.936l1.275 4.249m5.607 5.609l4.251 1.275" /> <path d="M11.683 12.317l5.759 -5.759" /> <path d="M4 5.5a1.5 1.5 0 1 0 3 0a1.5 1.5 0 1 0 -3 0" /> <path d="M17 5.5a1.5 1.5 0 1 0 3 0a1.5 1.5 0 1 0 -3 0" /> <path d="M17 18.5a1.5 1.5 0 1 0 3 0a1.5 1.5 0 1 0 -3 0" /> <path d="M4 15.5a4.5 4.5 0 1 0 9 0a4.5 4.5 0 1 0 -9 0" /></symbol>
  <symbol id="ti-alert-circle" viewBox="0 0 24 24" fill="none" stroke="currentColor" stroke-width="2" stroke-linecap="round" stroke-linejoin="round"><path d="M3 12a9 9 0 1 0 18 0a9 9 0 0 0 -18 0" /> <path d="M12 8v4" /> <path d="M12 16h.01" /></symbol>
  <symbol id="ti-alert-circle-filled" viewBox="0 0 24 24" fill="currentColor" stroke="none"><path d="M12 2c5.523 0 10 4.477 10 10a10 10 0 0 1 -19.995 .324l-.005 -.324l.004 -.28c.148 -5.393 4.566 -9.72 9.996 -9.72zm.01 13l-.127 .007a1 1 0 0 0 0 1.986l.117 .007l.127 -.007a1 1 0 0 0 0 -1.986l-.117 -.007zm-.01 -8a1 1 0 0 0 -.993 .883l-.007 .117v4l.007 .117a1 1 0 0 0 1.986 0l.007 -.117v-4l-.007 -.117a1 1 0 0 0 -.993 -.883z" /></symbol>
  <symbol id="ti-alert-triangle" viewBox="0 0 24 24" fill="none" stroke="currentColor" stroke-width="2" stroke-linecap="round" stroke-linejoin="round"><path d="M12 9v4" /> <path d="M10.363 3.591l-8.106 13.534a1.914 1.914 0 0 0 1.636 2.871h16.214a1.914 1.914 0 0 0 1.636 -2.87l-8.106 -13.536a1.914 1.914 0 0 0 -3.274 0" /> <path d="M12 16h.01" /></symbol>
  <symbol id="ti-alert-triangle-filled" viewBox="0 0 24 24" fill="currentColor" stroke="none"><path d="M12 1.67c.955 0 1.845 .467 2.39 1.247l.105 .16l8.114 13.548a2.914 2.914 0 0 1 -2.307 4.363l-.195 .008h-16.225a2.914 2.914 0 0 1 -2.582 -4.2l.099 -.185l8.11 -13.538a2.914 2.914 0 0 1 2.491 -1.403zm.01 13.33l-.127 .007a1 1 0 0 0 0 1.986l.117 .007l.127 -.007a1 1 0 0 0 0 -1.986l-.117 -.007zm-.01 -7a1 1 0 0 0 -.993 .883l-.007 .117v4l.007 .117a1 1 0 0 0 1.986 0l.007 -.117v-4l-.007 -.117a1 1 0 0 0 -.993 -.883z" /></symbol>
  <symbol id="ti-arrow-right" viewBox="0 0 24 24" fill="none" stroke="currentColor" stroke-width="2" stroke-linecap="round" stroke-linejoin="round"><path d="M5 12l14 0" /> <path d="M13 18l6 -6" /> <path d="M13 6l6 6" /></symbol>
  <symbol id="ti-arrow-up" viewBox="0 0 24 24" fill="none" stroke="currentColor" stroke-width="2" stroke-linecap="round" stroke-linejoin="round"><path d="M12 5l0 14" /> <path d="M18 11l-6 -6" /> <path d="M6 11l6 -6" /></symbol>
  <symbol id="ti-brand-mastercard" viewBox="0 0 24 24" fill="none" stroke="currentColor" stroke-width="2" stroke-linecap="round" stroke-linejoin="round"><path d="M11 12a3 3 0 1 0 6 0a3 3 0 1 0 -6 0" /> <path d="M12 9.765a3 3 0 1 0 0 4.47" /> <path d="M3 7a2 2 0 0 1 2 -2h14a2 2 0 0 1 2 2v10a2 2 0 0 1 -2 2h-14a2 2 0 0 1 -2 -2v-10" /></symbol>
  <symbol id="ti-chart-line" viewBox="0 0 24 24" fill="none" stroke="currentColor" stroke-width="2" stroke-linecap="round" stroke-linejoin="round"><path d="M4 19l16 0" /> <path d="M4 15l4 -6l4 2l4 -5l4 4" /></symbol>
  <symbol id="ti-check" viewBox="0 0 24 24" fill="none" stroke="currentColor" stroke-width="2" stroke-linecap="round" stroke-linejoin="round"><path d="M5 12l5 5l10 -10" /></symbol>
  <symbol id="ti-chevron-down" viewBox="0 0 24 24" fill="none" stroke="currentColor" stroke-width="2" stroke-linecap="round" stroke-linejoin="round"><path d="M6 9l6 6l6 -6" /></symbol>
  <symbol id="ti-chevron-left" viewBox="0 0 24 24" fill="none" stroke="currentColor" stroke-width="2" stroke-linecap="round" stroke-linejoin="round"><path d="M15 6l-6 6l6 6" /></symbol>
  <symbol id="ti-chevron-right" viewBox="0 0 24 24" fill="none" stroke="currentColor" stroke-width="2" stroke-linecap="round" stroke-linejoin="round"><path d="M9 6l6 6l-6 6" /></symbol>
  <symbol id="ti-chevron-up" viewBox="0 0 24 24" fill="none" stroke="currentColor" stroke-width="2" stroke-linecap="round" stroke-linejoin="round"><path d="M6 15l6 -6l6 6" /></symbol>
  <symbol id="ti-chevrons-left" viewBox="0 0 24 24" fill="none" stroke="currentColor" stroke-width="2" stroke-linecap="round" stroke-linejoin="round"><path d="M11 7l-5 5l5 5" /> <path d="M17 7l-5 5l5 5" /></symbol>
  <symbol id="ti-chevrons-right" viewBox="0 0 24 24" fill="none" stroke="currentColor" stroke-width="2" stroke-linecap="round" stroke-linejoin="round"><path d="M7 7l5 5l-5 5" /> <path d="M13 7l5 5l-5 5" /></symbol>
  <symbol id="ti-circle-check" viewBox="0 0 24 24" fill="none" stroke="currentColor" stroke-width="2" stroke-linecap="round" stroke-linejoin="round"><path d="M3 12a9 9 0 1 0 18 0a9 9 0 1 0 -18 0" /> <path d="M9 12l2 2l4 -4" /></symbol>
  <symbol id="ti-circle-x" viewBox="0 0 24 24" fill="none" stroke="currentColor" stroke-width="2" stroke-linecap="round" stroke-linejoin="round"><path d="M3 12a9 9 0 1 0 18 0a9 9 0 1 0 -18 0" /> <path d="M10 10l4 4m0 -4l-4 4" /></symbol>
  <symbol id="ti-clock" viewBox="0 0 24 24" fill="none" stroke="currentColor" stroke-width="2" stroke-linecap="round" stroke-linejoin="round"><path d="M3 12a9 9 0 1 0 18 0a9 9 0 0 0 -18 0" /> <path d="M12 7v5l3 3" /></symbol>
  <symbol id="ti-cloud-off" viewBox="0 0 24 24" fill="none" stroke="currentColor" stroke-width="2" stroke-linecap="round" stroke-linejoin="round"><path d="M9.58 5.548c.24 -.11 .492 -.207 .752 -.286c1.88 -.572 3.956 -.193 5.444 1c1.488 1.19 2.162 3.007 1.77 4.769h.99c1.913 0 3.464 1.56 3.464 3.486c0 .957 -.383 1.824 -1.003 2.454m-2.997 1.033h-11.343c-2.572 -.004 -4.657 -2.011 -4.657 -4.487c0 -2.475 2.085 -4.482 4.657 -4.482c.13 -.582 .37 -1.128 .7 -1.62" /> <path d="M3 3l18 18" /></symbol>
  <symbol id="ti-copy" viewBox="0 0 24 24" fill="none" stroke="currentColor" stroke-width="2" stroke-linecap="round" stroke-linejoin="round"><path d="M7 9.667a2.667 2.667 0 0 1 2.667 -2.667h8.666a2.667 2.667 0 0 1 2.667 2.667v8.666a2.667 2.667 0 0 1 -2.667 2.667h-8.666a2.667 2.667 0 0 1 -2.667 -2.667l0 -8.666" /> <path d="M4.012 16.737a2.005 2.005 0 0 1 -1.012 -1.737v-10c0 -1.1 .9 -2 2 -2h10c.75 0 1.158 .385 1.5 1" /></symbol>
  <symbol id="ti-corner-down-right" viewBox="0 0 24 24" fill="none" stroke="currentColor" stroke-width="2" stroke-linecap="round" stroke-linejoin="round"><path d="M6 6v6a3 3 0 0 0 3 3h10l-4 -4m0 8l4 -4" /></symbol>
  <symbol id="ti-cpu" viewBox="0 0 24 24" fill="none" stroke="currentColor" stroke-width="2" stroke-linecap="round" stroke-linejoin="round"><path d="M5 6a1 1 0 0 1 1 -1h12a1 1 0 0 1 1 1v12a1 1 0 0 1 -1 1h-12a1 1 0 0 1 -1 -1l0 -12" /> <path d="M9 9h6v6h-6l0 -6" /> <path d="M3 10h2" /> <path d="M3 14h2" /> <path d="M10 3v2" /> <path d="M14 3v2" /> <path d="M21 10h-2" /> <path d="M21 14h-2" /> <path d="M14 21v-2" /> <path d="M10 21v-2" /></symbol>
  <symbol id="ti-credit-card" viewBox="0 0 24 24" fill="none" stroke="currentColor" stroke-width="2" stroke-linecap="round" stroke-linejoin="round"><path d="M3 8a3 3 0 0 1 3 -3h12a3 3 0 0 1 3 3v8a3 3 0 0 1 -3 3h-12a3 3 0 0 1 -3 -3l0 -8" /> <path d="M3 10l18 0" /> <path d="M7 15l.01 0" /> <path d="M11 15l2 0" /></symbol>
  <symbol id="ti-device-desktop" viewBox="0 0 24 24" fill="none" stroke="currentColor" stroke-width="2" stroke-linecap="round" stroke-linejoin="round"><path d="M3 5a1 1 0 0 1 1 -1h16a1 1 0 0 1 1 1v10a1 1 0 0 1 -1 1h-16a1 1 0 0 1 -1 -1v-10" /> <path d="M7 20h10" /> <path d="M9 16v4" /> <path d="M15 16v4" /></symbol>
  <symbol id="ti-devices" viewBox="0 0 24 24" fill="none" stroke="currentColor" stroke-width="2" stroke-linecap="round" stroke-linejoin="round"><path d="M13 9a1 1 0 0 1 1 -1h6a1 1 0 0 1 1 1v10a1 1 0 0 1 -1 1h-6a1 1 0 0 1 -1 -1v-10" /> <path d="M18 8v-3a1 1 0 0 0 -1 -1h-13a1 1 0 0 0 -1 1v12a1 1 0 0 0 1 1h9" /> <path d="M16 9h2" /></symbol>
  <symbol id="ti-dots-vertical" viewBox="0 0 24 24" fill="none" stroke="currentColor" stroke-width="2" stroke-linecap="round" stroke-linejoin="round"><path d="M11 12a1 1 0 1 0 2 0a1 1 0 1 0 -2 0" /> <path d="M11 19a1 1 0 1 0 2 0a1 1 0 1 0 -2 0" /> <path d="M11 5a1 1 0 1 0 2 0a1 1 0 1 0 -2 0" /></symbol>
  <symbol id="ti-download" viewBox="0 0 24 24" fill="none" stroke="currentColor" stroke-width="2" stroke-linecap="round" stroke-linejoin="round"><path d="M4 17v2a2 2 0 0 0 2 2h12a2 2 0 0 0 2 -2v-2" /> <path d="M7 11l5 5l5 -5" /> <path d="M12 4l0 12" /></symbol>
  <symbol id="ti-external-link" viewBox="0 0 24 24" fill="none" stroke="currentColor" stroke-width="2" stroke-linecap="round" stroke-linejoin="round"><path d="M12 6h-6a2 2 0 0 0 -2 2v10a2 2 0 0 0 2 2h10a2 2 0 0 0 2 -2v-6" /> <path d="M11 13l9 -9" /> <path d="M15 4h5v5" /></symbol>
  <symbol id="ti-eye" viewBox="0 0 24 24" fill="none" stroke="currentColor" stroke-width="2" stroke-linecap="round" stroke-linejoin="round"><path d="M10 12a2 2 0 1 0 4 0a2 2 0 0 0 -4 0" /> <path d="M21 12c-2.4 4 -5.4 6 -9 6c-3.6 0 -6.6 -2 -9 -6c2.4 -4 5.4 -6 9 -6c3.6 0 6.6 2 9 6" /></symbol>
  <symbol id="ti-eye-off" viewBox="0 0 24 24" fill="none" stroke="currentColor" stroke-width="2" stroke-linecap="round" stroke-linejoin="round"><path d="M10.585 10.587a2 2 0 0 0 2.829 2.828" /> <path d="M16.681 16.673a8.717 8.717 0 0 1 -4.681 1.327c-3.6 0 -6.6 -2 -9 -6c1.272 -2.12 2.712 -3.678 4.32 -4.674m2.86 -1.146a9.055 9.055 0 0 1 1.82 -.18c3.6 0 6.6 2 9 6c-.666 1.11 -1.379 2.067 -2.138 2.87" /> <path d="M3 3l18 18" /></symbol>
  <symbol id="ti-file-invoice" viewBox="0 0 24 24" fill="none" stroke="currentColor" stroke-width="2" stroke-linecap="round" stroke-linejoin="round"><path d="M14 3v4a1 1 0 0 0 1 1h4" /> <path d="M17 21h-10a2 2 0 0 1 -2 -2v-14a2 2 0 0 1 2 -2h7l5 5v11a2 2 0 0 1 -2 2" /> <path d="M9 7l1 0" /> <path d="M9 13l6 0" /> <path d="M13 17l2 0" /></symbol>
  <symbol id="ti-file-text" viewBox="0 0 24 24" fill="none" stroke="currentColor" stroke-width="2" stroke-linecap="round" stroke-linejoin="round"><path d="M14 3v4a1 1 0 0 0 1 1h4" /> <path d="M17 21h-10a2 2 0 0 1 -2 -2v-14a2 2 0 0 1 2 -2h7l5 5v11a2 2 0 0 1 -2 2" /> <path d="M9 9l1 0" /> <path d="M9 13l6 0" /> <path d="M9 17l6 0" /></symbol>
  <symbol id="ti-history-toggle" viewBox="0 0 24 24" fill="none" stroke="currentColor" stroke-width="2" stroke-linecap="round" stroke-linejoin="round"><path d="M10 20.777a8.942 8.942 0 0 1 -2.48 -.969" /> <path d="M14 3.223a9.003 9.003 0 0 1 0 17.554" /> <path d="M4.579 17.093a8.961 8.961 0 0 1 -1.227 -2.592" /> <path d="M3.124 10.5c.16 -.95 .468 -1.85 .9 -2.675l.169 -.305" /> <path d="M6.907 4.579a8.954 8.954 0 0 1 3.093 -1.356" /> <path d="M12 8v4l3 3" /></symbol>
  <symbol id="ti-info-circle" viewBox="0 0 24 24" fill="none" stroke="currentColor" stroke-width="2" stroke-linecap="round" stroke-linejoin="round"><path d="M3 12a9 9 0 1 0 18 0a9 9 0 0 0 -18 0" /> <path d="M12 9h.01" /> <path d="M11 12h1v4h1" /></symbol>
  <symbol id="ti-key" viewBox="0 0 24 24" fill="none" stroke="currentColor" stroke-width="2" stroke-linecap="round" stroke-linejoin="round"><path d="M16.555 3.843l3.602 3.602a2.877 2.877 0 0 1 0 4.069l-2.643 2.643a2.877 2.877 0 0 1 -4.069 0l-.301 -.301l-6.558 6.558a2 2 0 0 1 -1.239 .578l-.175 .008h-1.172a1 1 0 0 1 -.993 -.883l-.007 -.117v-1.172a2 2 0 0 1 .467 -1.284l.119 -.13l.414 -.414h2v-2h2v-2l2.144 -2.144l-.301 -.301a2.877 2.877 0 0 1 0 -4.069l2.643 -2.643a2.877 2.877 0 0 1 4.069 0" /> <path d="M15 9h.01" /></symbol>
  <symbol id="ti-link" viewBox="0 0 24 24" fill="none" stroke="currentColor" stroke-width="2" stroke-linecap="round" stroke-linejoin="round"><path d="M9 15l6 -6" /> <path d="M11 6l.463 -.536a5 5 0 0 1 7.071 7.072l-.534 .464" /> <path d="M13 18l-.397 .534a5.068 5.068 0 0 1 -7.127 0a4.972 4.972 0 0 1 0 -7.071l.524 -.463" /></symbol>
  <symbol id="ti-lock" viewBox="0 0 24 24" fill="none" stroke="currentColor" stroke-width="2" stroke-linecap="round" stroke-linejoin="round"><path d="M5 13a2 2 0 0 1 2 -2h10a2 2 0 0 1 2 2v6a2 2 0 0 1 -2 2h-10a2 2 0 0 1 -2 -2v-6" /> <path d="M11 16a1 1 0 1 0 2 0a1 1 0 0 0 -2 0" /> <path d="M8 11v-4a4 4 0 1 1 8 0v4" /></symbol>
  <symbol id="ti-message" viewBox="0 0 24 24" fill="none" stroke="currentColor" stroke-width="2" stroke-linecap="round" stroke-linejoin="round"><path d="M8 9h8" /> <path d="M8 13h6" /> <path d="M18 4a3 3 0 0 1 3 3v8a3 3 0 0 1 -3 3h-5l-5 3v-3h-2a3 3 0 0 1 -3 -3v-8a3 3 0 0 1 3 -3h12" /></symbol>
  <symbol id="ti-palette" viewBox="0 0 24 24" fill="none" stroke="currentColor" stroke-width="2" stroke-linecap="round" stroke-linejoin="round"><path d="M12 21a9 9 0 0 1 0 -18c4.97 0 9 3.582 9 8c0 1.06 -.474 2.078 -1.318 2.828c-.844 .75 -1.989 1.172 -3.182 1.172h-2.5a2 2 0 0 0 -1 3.75a1.3 1.3 0 0 1 -1 2.25" /> <path d="M7.5 10.5a1 1 0 1 0 2 0a1 1 0 1 0 -2 0" /> <path d="M11.5 7.5a1 1 0 1 0 2 0a1 1 0 1 0 -2 0" /> <path d="M15.5 10.5a1 1 0 1 0 2 0a1 1 0 1 0 -2 0" /></symbol>
  <symbol id="ti-pencil" viewBox="0 0 24 24" fill="none" stroke="currentColor" stroke-width="2" stroke-linecap="round" stroke-linejoin="round"><path d="M4 20h4l10.5 -10.5a2.828 2.828 0 1 0 -4 -4l-10.5 10.5v4" /> <path d="M13.5 6.5l4 4" /></symbol>
  <symbol id="ti-plug-connected" viewBox="0 0 24 24" fill="none" stroke="currentColor" stroke-width="2" stroke-linecap="round" stroke-linejoin="round"><path d="M7 12l5 5l-1.5 1.5a3.536 3.536 0 1 1 -5 -5l1.5 -1.5" /> <path d="M17 12l-5 -5l1.5 -1.5a3.536 3.536 0 1 1 5 5l-1.5 1.5" /> <path d="M3 21l2.5 -2.5" /> <path d="M18.5 5.5l2.5 -2.5" /> <path d="M10 11l-2 2" /> <path d="M13 14l-2 2" /></symbol>
  <symbol id="ti-plus" viewBox="0 0 24 24" fill="none" stroke="currentColor" stroke-width="2" stroke-linecap="round" stroke-linejoin="round"><path d="M12 5l0 14" /> <path d="M5 12l14 0" /></symbol>
  <symbol id="ti-point" viewBox="0 0 24 24" fill="none" stroke="currentColor" stroke-width="2" stroke-linecap="round" stroke-linejoin="round"><path d="M8 12a4 4 0 1 0 8 0a4 4 0 1 0 -8 0" /></symbol>
  <symbol id="ti-refresh" viewBox="0 0 24 24" fill="none" stroke="currentColor" stroke-width="2" stroke-linecap="round" stroke-linejoin="round"><path d="M20 11a8.1 8.1 0 0 0 -15.5 -2m-.5 -4v4h4" /> <path d="M4 13a8.1 8.1 0 0 0 15.5 2m.5 4v-4h-4" /></symbol>
  <symbol id="ti-repeat" viewBox="0 0 24 24" fill="none" stroke="currentColor" stroke-width="2" stroke-linecap="round" stroke-linejoin="round"><path d="M4 12v-3a3 3 0 0 1 3 -3h13m-3 -3l3 3l-3 3" /> <path d="M20 12v3a3 3 0 0 1 -3 3h-13m3 3l-3 -3l3 -3" /></symbol>
  <symbol id="ti-rss" viewBox="0 0 24 24" fill="none" stroke="currentColor" stroke-width="2" stroke-linecap="round" stroke-linejoin="round"><path d="M4 19a1 1 0 1 0 2 0a1 1 0 1 0 -2 0" /> <path d="M4 4a16 16 0 0 1 16 16" /> <path d="M4 11a9 9 0 0 1 9 9" /></symbol>
  <symbol id="ti-search" viewBox="0 0 24 24" fill="none" stroke="currentColor" stroke-width="2" stroke-linecap="round" stroke-linejoin="round"><path d="M3 10a7 7 0 1 0 14 0a7 7 0 1 0 -14 0" /> <path d="M21 21l-6 -6" /></symbol>
  <symbol id="ti-send" viewBox="0 0 24 24" fill="none" stroke="currentColor" stroke-width="2" stroke-linecap="round" stroke-linejoin="round"><path d="M10 14l11 -11" /> <path d="M21 3l-6.5 18a.55 .55 0 0 1 -1 0l-3.5 -7l-7 -3.5a.55 .55 0 0 1 0 -1l18 -6.5" /></symbol>
  <symbol id="ti-server-2" viewBox="0 0 24 24" fill="none" stroke="currentColor" stroke-width="2" stroke-linecap="round" stroke-linejoin="round"><path d="M3 7a3 3 0 0 1 3 -3h12a3 3 0 0 1 3 3v2a3 3 0 0 1 -3 3h-12a3 3 0 0 1 -3 -3v-2" /> <path d="M3 15a3 3 0 0 1 3 -3h12a3 3 0 0 1 3 3v2a3 3 0 0 1 -3 3h-12a3 3 0 0 1 -3 -3l0 -2" /> <path d="M7 8l0 .01" /> <path d="M7 16l0 .01" /> <path d="M11 8h6" /> <path d="M11 16h6" /></symbol>
  <symbol id="ti-settings" viewBox="0 0 24 24" fill="none" stroke="currentColor" stroke-width="2" stroke-linecap="round" stroke-linejoin="round"><path d="M10.325 4.317c.426 -1.756 2.924 -1.756 3.35 0a1.724 1.724 0 0 0 2.573 1.066c1.543 -.94 3.31 .826 2.37 2.37a1.724 1.724 0 0 0 1.065 2.572c1.756 .426 1.756 2.924 0 3.35a1.724 1.724 0 0 0 -1.066 2.573c.94 1.543 -.826 3.31 -2.37 2.37a1.724 1.724 0 0 0 -2.572 1.065c-.426 1.756 -2.924 1.756 -3.35 0a1.724 1.724 0 0 0 -2.573 -1.066c-1.543 .94 -3.31 -.826 -2.37 -2.37a1.724 1.724 0 0 0 -1.065 -2.572c-1.756 -.426 -1.756 -2.924 0 -3.35a1.724 1.724 0 0 0 1.066 -2.573c-.94 -1.543 .826 -3.31 2.37 -2.37c1 .608 2.296 .07 2.572 -1.065" /> <path d="M9 12a3 3 0 1 0 6 0a3 3 0 0 0 -6 0" /></symbol>
  <symbol id="ti-shield-check" viewBox="0 0 24 24" fill="none" stroke="currentColor" stroke-width="2" stroke-linecap="round" stroke-linejoin="round"><path d="M11.46 20.846a12 12 0 0 1 -7.96 -14.846a12 12 0 0 0 8.5 -3a12 12 0 0 0 8.5 3a12 12 0 0 1 -.09 7.06" /> <path d="M15 19l2 2l4 -4" /></symbol>
  <symbol id="ti-smart-home" viewBox="0 0 24 24" fill="none" stroke="currentColor" stroke-width="2" stroke-linecap="round" stroke-linejoin="round"><path d="M19 8.71l-5.333 -4.148a2.666 2.666 0 0 0 -3.274 0l-5.334 4.148a2.665 2.665 0 0 0 -1.029 2.105v7.2a2 2 0 0 0 2 2h12a2 2 0 0 0 2 -2v-7.2c0 -.823 -.38 -1.6 -1.03 -2.105" /> <path d="M16 15c-2.21 1.333 -5.792 1.333 -8 0" /></symbol>
  <symbol id="ti-sparkles" viewBox="0 0 24 24" fill="none" stroke="currentColor" stroke-width="2" stroke-linecap="round" stroke-linejoin="round"><path d="M16 18a2 2 0 0 1 2 2a2 2 0 0 1 2 -2a2 2 0 0 1 -2 -2a2 2 0 0 1 -2 2m0 -12a2 2 0 0 1 2 2a2 2 0 0 1 2 -2a2 2 0 0 1 -2 -2a2 2 0 0 1 -2 2m-7 12a6 6 0 0 1 6 -6a6 6 0 0 1 -6 -6a6 6 0 0 1 -6 6a6 6 0 0 1 6 6" /></symbol>
  <symbol id="ti-topology-star" viewBox="0 0 24 24" fill="none" stroke="currentColor" stroke-width="2" stroke-linecap="round" stroke-linejoin="round"><path d="M8 18a2 2 0 1 0 -4 0a2 2 0 0 0 4 0" /> <path d="M20 6a2 2 0 1 0 -4 0a2 2 0 0 0 4 0" /> <path d="M8 6a2 2 0 1 0 -4 0a2 2 0 0 0 4 0" /> <path d="M20 18a2 2 0 1 0 -4 0a2 2 0 0 0 4 0" /> <path d="M14 12a2 2 0 1 0 -4 0a2 2 0 0 0 4 0" /> <path d="M7.5 7.5l3 3" /> <path d="M7.5 16.5l3 -3" /> <path d="M13.5 13.5l3 3" /> <path d="M16.5 7.5l-3 3" /></symbol>
  <symbol id="ti-trash" viewBox="0 0 24 24" fill="none" stroke="currentColor" stroke-width="2" stroke-linecap="round" stroke-linejoin="round"><path d="M4 7l16 0" /> <path d="M10 11l0 6" /> <path d="M14 11l0 6" /> <path d="M5 7l1 12a2 2 0 0 0 2 2h8a2 2 0 0 0 2 -2l1 -12" /> <path d="M9 7v-3a1 1 0 0 1 1 -1h4a1 1 0 0 1 1 1v3" /></symbol>
  <symbol id="ti-user" viewBox="0 0 24 24" fill="none" stroke="currentColor" stroke-width="2" stroke-linecap="round" stroke-linejoin="round"><path d="M8 7a4 4 0 1 0 8 0a4 4 0 0 0 -8 0" /> <path d="M6 21v-2a4 4 0 0 1 4 -4h4a4 4 0 0 1 4 4v2" /></symbol>
  <symbol id="ti-x" viewBox="0 0 24 24" fill="none" stroke="currentColor" stroke-width="2" stroke-linecap="round" stroke-linejoin="round"><path d="M18 6l-12 12" /> <path d="M6 6l12 12" /></symbol>
</svg>
